<svg xmlns="http://www.w3.org/2000/svg" width="800" height="800" viewBox="0 0 800 800" role="img" aria-label="ZenBoard Mechanical">
  <defs>
    <linearGradient id="bg" x1="0%" y1="0%" x2="100%" y2="100%">
      <stop offset="0%" stop-color="#171717"/>
      <stop offset="100%" stop-color="#312e81"/>
    </linearGradient>
  </defs>
  <rect width="800" height="800" fill="url(#bg)"/>
  <rect x="120" y="280" width="560" height="240" rx="24" fill="#262626" stroke="#6366f1" stroke-width="3"/>
  <g fill="#404040" stroke="#06b6d4" stroke-width="1">
    <rect x="160" y="320" width="44" height="44" rx="8"/><rect x="220" y="320" width="44" height="44" rx="8"/>
    <rect x="280" y="320" width="44" height="44" rx="8"/><rect x="340" y="320" width="44" height="44" rx="8"/>
    <rect x="400" y="320" width="44" height="44" rx="8"/><rect x="460" y="320" width="44" height="44" rx="8"/>
    <rect x="520" y="320" width="44" height="44" rx="8"/><rect x="580" y="320" width="44" height="44" rx="8"/>
    <rect x="160" y="380" width="44" height="44" rx="8"/><rect x="220" y="380" width="44" height="44" rx="8"/>
    <rect x="280" y="380" width="44" height="44" rx="8"/><rect x="340" y="380" width="44" height="44" rx="8"/>
    <rect x="400" y="380" width="200" height="44" rx="8"/>
  </g>
</svg>
